<?xml version="1.0" encoding="UTF-8"?>
<svg id="Layer_1" xmlns="http://www.w3.org/2000/svg" viewBox="0 0 242.45 63.76">
  <defs>
    <style>
      .cls-1 {
        letter-spacing: -.02em;
      }

      .cls-2 {
        letter-spacing: 0em;
      }

      .cls-3 {
        font-family: NeueHaasGroteskTextPro, 'Neue Haas Grotesk Text Pro';
        font-size: 48px;
        font-variation-settings: 'wght' 400;
      }

      .cls-4 {
        letter-spacing: 0em;
      }
    </style>
  </defs>
  <text/>
  <text class="cls-3" transform="translate(43.91 51.99)"><tspan x="0" y="0">N</tspan><tspan class="cls-2" x="35.58" y="0">o</tspan><tspan class="cls-4" x="63.63" y="0">t</tspan><tspan x="80.25" y="0">e-</tspan><tspan class="cls-1" x="125.91" y="0">E</tspan><tspan x="157.15" y="0">d </tspan></text>
  <g>
    <path d="M44.19,26.14l-4.42-4.5c-.14-.14-.32-.21-.52-.21-.23,0-.46.1-.63.27l-16.29,16.02c-.17.16-.34.42-.41.62l-2.67,6.95c-.09.23-.05.49.09.69.14.21.38.33.63.33.09,0,.17-.01.25-.04l6.99-2.55c.2-.07.46-.24.63-.4l16.29-16.02c.18-.18.28-.41.28-.64,0-.2-.07-.38-.2-.51Z"/>
    <path d="M30.95,45.23c-.32,0-.72.46-.73.48-.5.49-1.17.91-1.85,1.16l-7.02,2.61c-.53.19-.99.28-1.4.28-1.33,0-2.6-.68-3.39-1.82-.77-1.12-.95-2.54-.47-3.81l2.68-6.98c.25-.66.69-1.32,1.19-1.82l10.33-10.16c.81-.82.78-1.7.65-2.04-.3-.81-.78-1.54-1.33-1.99l-10.8-8.87c-.9-.74-2.42-1.28-3.62-1.28H2.76c-1.52,0-2.76,1.21-2.76,2.7,0,.36.02,35.8.02,35.98,0,1.35.95,2.3,2.31,2.3.86,0,26.31.01,26.31.01,1.49,0,2.7-1.23,2.7-2.75v-3.22c0-.53-.13-.79-.39-.79ZM16.9,14.53l11.9,9.34h-10.04c-1.77,0-1.86-1.52-1.86-1.82v-7.52h0ZM4.85,27.58h14.08c.99,0,1.79.8,1.79,1.79s-.8,1.79-1.79,1.79H4.85c-.99,0-1.79-.8-1.79-1.79s.8-1.79,1.79-1.79ZM12.61,49.17h-7.75c-.99,0-1.79-.8-1.79-1.79s.8-1.79,1.79-1.79h7.75c.99,0,1.79.8,1.79,1.79s-.8,1.79-1.79,1.79ZM12.61,40.1h-7.75c-.99,0-1.79-.8-1.79-1.79s.8-1.79,1.79-1.79h7.75c.99,0,1.79.8,1.79,1.79s-.8,1.79-1.79,1.79ZM19.94,49.88s0,0,0,0c0,0,0,0,0,0h0Z"/>
  </g>
</svg>